<?xml version="1.0" encoding="UTF-8"?>
<svg width="108px" height="48px" viewBox="0 0 108 48" version="1.1" xmlns="http://www.w3.org/2000/svg" xmlns:xlink="http://www.w3.org/1999/xlink">
    <!-- Generator: Sketch 46 (44423) - http://www.bohemiancoding.com/sketch -->
    <title>Logo</title>
    <desc>Created with Sketch.</desc>
    <defs>
        <linearGradient x1="18.1469235%" y1="36.2761692%" x2="62.9138032%" y2="84.3008122%" id="linearGradient-1">
            <stop stop-color="#4E8CAE" offset="0%"></stop>
            <stop stop-color="#68005D" offset="100%"></stop>
        </linearGradient>
        <path d="M92.8572234,1.72786731 C93.5866807,1.18719334 95.0383555,0.952480272 97.2122477,1.0237281 L102.704548,1.0237281 C104.991598,0.909025352 106.348238,1.21018149 106.774466,1.9271965 C107.200694,2.64421152 107.022789,3.79703799 106.240751,5.38567591 L89.2998378,40.7235569 C87.7219562,44.1331176 86.6204142,46.0407018 85.995212,46.4463098 C85.3700098,46.8519178 84.4503327,47.0336533 83.2361807,46.9915164 L74.6897247,46.9915164 C73.8154126,47.0428633 73.0716846,46.8611277 72.4585405,46.4463098 C71.8453964,46.0314919 71.2952695,45.2155003 70.8081598,43.998335 L66,33.6672741 L73.7355067,18.0421949 L79.2902093,28.7876896 L90.9048478,4.64998607 C91.4769742,3.24258086 92.1277661,2.26854128 92.8572234,1.72786731 Z" id="path-2"></path>
        <linearGradient x1="63.3365709%" y1="16.5282811%" x2="78.3294105%" y2="69.5652662%" id="linearGradient-3">
            <stop stop-color="#ED1E79" offset="0%"></stop>
            <stop stop-color="#68005D" offset="100%"></stop>
        </linearGradient>
    </defs>
    <g id="Page-1" stroke="none" stroke-width="1" fill="none" fill-rule="evenodd">
        <g id="Logo" transform="translate(1.000000, 1.000000)">
            <g id="Rectangle-3-Copy-3">
                <use fill="url(#linearGradient-1)" fill-rule="evenodd" xlink:href="#path-2"></use>
                <path stroke="#FFFFFF" stroke-width="0.7" d="M73.7422539,18.817431 L66.3882225,33.6719619 L71.1331042,43.8682922 C71.5965948,45.0264391 72.1099633,45.7879079 72.654663,46.1564203 C73.2009746,46.5260231 73.8685148,46.6891416 74.6897247,46.6415164 L83.2483201,46.641727 C84.3970808,46.6815945 85.2489372,46.5132609 85.8047215,46.1526887 C86.3471764,45.8007641 87.4417401,43.9052643 88.9842307,40.5722555 L105.926736,5.23109615 C106.661482,3.73852878 106.822766,2.69340421 106.473609,2.10604023 C106.139041,1.54321941 104.8849,1.26481652 102.704548,1.3737281 L97.2007828,1.37354027 C95.1004047,1.30470182 93.7133469,1.52896734 93.0656365,2.00905051 C92.3960061,2.50538073 91.7791692,3.42859998 91.2202352,4.80174496 L79.3014281,29.5715759 L73.7422539,18.817431 Z"></path>
            </g>
            <path d="M21.8516332,0.691356692 C22.3478562,0.33804569 23.0622586,0.12132188 23.9948404,0.0411852644 L33.7994288,0 C35.2420999,0 36.3637418,0.230452231 37.1643544,0.691356692 C37.9649671,1.15226115 38.7307227,2.07102683 39.4616212,3.44765372 L51.3047022,27.6330631 L64.2341654,2.10396728 C64.5585271,1.28446058 64.9174961,0.732846208 65.3110726,0.449124156 C65.7046491,0.165402104 66.2995037,0.0294224734 67.0956365,0.0411852644 L77.8827092,0.0411852644 C78.9902935,0.0596716138 79.6598933,0.360231932 79.8915087,0.94286622 C80.1231241,1.52550051 79.9838871,2.26132785 79.4737977,3.15034826 L59.4268277,43.3407755 C58.8297709,44.3906288 58.3546821,45.0197953 58.0015612,45.228275 C57.6484404,45.4367548 57.1478662,45.5344822 56.4998387,45.5214574 L47.0854199,45.746903 C46.281742,45.7165061 45.6360496,45.5436301 45.1483427,45.228275 C44.6606359,44.91292 44.3079451,44.5154677 44.0902703,44.0359182 L29.6979146,15.3403141 L16.6791609,42.0007658 C15.9348742,43.4242891 15.2984579,44.4482431 14.769912,45.0726277 C13.9770932,46.0092047 12.1426884,45.9553347 11.3058661,45.9730849 C6.76425726,46.0694188 4.43134376,45.886756 2.81623519,45.746903 C1.60677131,45.642175 1.18483866,45.7548547 0.49831235,45.228275 C-0.188213963,44.7016954 -0.229943839,43.7159489 0.782202693,41.619011 C2.75295849,37.5360522 7.96258378,26.9914412 19.0718184,5.42954291 C19.6028141,4.39893414 21.1072987,1.2213232 21.8516332,0.691356692 Z" id="Rectangle-2-Copy-3" stroke="#FFFFFF" fill="url(#linearGradient-3)"></path>
        </g>
    </g>
</svg>