<?xml version="1.0" encoding="utf-8"?>
<!-- Generator: Adobe Illustrator 21.0.2, SVG Export Plug-In . SVG Version: 6.00 Build 0)  -->
<svg version="1.1" id="Layer_1" xmlns="http://www.w3.org/2000/svg" xmlns:xlink="http://www.w3.org/1999/xlink" x="0px" y="0px"
	 viewBox="0 0 200 200" style="enable-background:new 0 0 200 200;" xml:space="preserve">
<style type="text/css">
	.st0{clip-path:url(#SVGID_2_);fill:#C2DA93;}
	.st1{clip-path:url(#SVGID_4_);fill:#385568;}
	.st2{clip-path:url(#SVGID_6_);enable-background:new    ;}
	.st3{clip-path:url(#SVGID_8_);}
	.st4{clip-path:url(#SVGID_10_);fill:none;stroke:#FFFFFF;stroke-miterlimit:10;}
	.st5{clip-path:url(#SVGID_12_);enable-background:new    ;}
	.st6{clip-path:url(#SVGID_14_);}
	.st7{clip-path:url(#SVGID_16_);}
	.st8{clip-path:url(#SVGID_18_);fill:#FFFFFF;}
</style>
<g>
	<defs>
		<polygon id="SVGID_1_" points="59,17 59,39.1 156,49 156,47.3 		"/>
	</defs>
	<clipPath id="SVGID_2_">
		<use xlink:href="#SVGID_1_"  style="overflow:visible;"/>
	</clipPath>
	<rect x="54" y="12" class="st0" width="107" height="42"/>
</g>
<g>
	<defs>
		<polygon id="SVGID_3_" points="48,159.9 157,171 157,53.1 48,42 		"/>
	</defs>
	<clipPath id="SVGID_4_">
		<use xlink:href="#SVGID_3_"  style="overflow:visible;"/>
	</clipPath>
	<rect x="43" y="37" class="st1" width="119" height="139"/>
</g>
<g>
	<defs>
		<polygon id="SVGID_5_" points="158.1,41.8 158.1,170.5 47.9,170.5 47.9,106.2 47.9,41.8 		"/>
	</defs>
	<clipPath id="SVGID_6_">
		<use xlink:href="#SVGID_5_"  style="overflow:visible;"/>
	</clipPath>
	<g class="st2">
		<g>
			<defs>
				<rect id="SVGID_7_" x="42" y="36" width="122" height="141"/>
			</defs>
			<clipPath id="SVGID_8_">
				<use xlink:href="#SVGID_7_"  style="overflow:visible;"/>
			</clipPath>
			<g class="st3">
				<defs>
					<rect id="SVGID_9_" x="47" y="41" width="112" height="130"/>
				</defs>
				<clipPath id="SVGID_10_">
					<use xlink:href="#SVGID_9_"  style="overflow:visible;"/>
				</clipPath>
				<polygon class="st4" points="47.9,159.5 157.5,172 158.1,52.9 47.9,41.8 				"/>
			</g>
		</g>
	</g>
</g>
<g>
	<defs>
		<path id="SVGID_11_" d="M64.9,110.8c0,6,0.6,11.4,1.8,16.3c1.2,4.9,3.2,9.1,6.1,12.7c2.9,3.6,6.7,6.3,11.7,8.3
			c4.9,1.9,11,2.9,18.4,2.9c7.3,0,14.2-0.5,20.8-1.6c6.6-1.1,12-2.2,16.2-3.4V64.1l-24.6-2.7V129c-1.5,0.2-3.3,0.4-5.3,0.6
			c-2,0.2-3.9,0.2-5.6,0.2c-5.7,0-9.6-1.7-11.7-5c-2.1-3.3-3.1-9-3.1-17V59l-24.6-2.8V110.8z"/>
	</defs>
	<clipPath id="SVGID_12_">
		<use xlink:href="#SVGID_11_"  style="overflow:visible;"/>
	</clipPath>
	<g class="st5">
		<g>
			<defs>
				<rect id="SVGID_13_" x="55" y="47" width="95" height="114"/>
			</defs>
			<clipPath id="SVGID_14_">
				<use xlink:href="#SVGID_13_"  style="overflow:visible;"/>
			</clipPath>
			<g class="st6">
				<defs>
					<rect id="SVGID_15_" x="55.7" y="47.1" width="93.4" height="113.1"/>
				</defs>
				<clipPath id="SVGID_16_">
					<use xlink:href="#SVGID_15_"  style="overflow:visible;"/>
				</clipPath>
				<g class="st7">
					<defs>
						<rect id="SVGID_17_" x="64" y="56" width="76" height="96"/>
					</defs>
					<clipPath id="SVGID_18_">
						<use xlink:href="#SVGID_17_"  style="overflow:visible;"/>
					</clipPath>
					<rect x="50.7" y="42.1" class="st8" width="103.4" height="123.1"/>
				</g>
			</g>
		</g>
	</g>
</g>
</svg>
